<svg xmlns="http://www.w3.org/2000/svg" version="1.1" xmlns:xlink="http://www.w3.org/1999/xlink" xmlns:svgjs="http://svgjs.dev/svgjs" width="2000" height="393" viewBox="0 0 2000 393"><g transform="matrix(1,0,0,1,-1.2121212121212466,2.2378541158017526)"><svg viewBox="0 0 396 78" data-background-color="#ffffff" preserveAspectRatio="xMidYMid meet" height="393" width="2000" xmlns="http://www.w3.org/2000/svg" xmlns:xlink="http://www.w3.org/1999/xlink"><g id="tight-bounds" transform="matrix(1,0,0,1,0.2400000000000091,-0.12527362975308165)"><svg viewBox="0 0 395.52 78.25054725950615" height="78.25054725950615" width="395.52"><g><svg viewBox="0 0 508.5639674944267 100.61541457550715" height="78.25054725950615" width="395.52"><g transform="matrix(1,0,0,1,0,13.905603606311047)"><svg viewBox="0 0 395.52 72.80420736288505" height="72.80420736288505" width="395.52"><g id="textblocktransform"><svg viewBox="0 0 395.52 72.80420736288505" height="72.80420736288505" width="395.52" id="textblock"><g><svg viewBox="0 0 395.52 72.80420736288505" height="72.80420736288505" width="395.52"><g transform="matrix(1,0,0,1,0,0)"><svg width="395.52" viewBox="0.35 -36.4 199.64000000000001 36.75" height="72.80420736288505" data-palette-color="#27292a"><path d="M8.6 0.2L8.6 0.2Q7 0.2 5.58-0.53 4.15-1.25 3.28-2.8 2.4-4.35 2.4-6.75L2.4-6.75Q2.4-8.05 2.65-10.15 2.9-12.25 3.33-14.75 3.75-17.25 4.2-19.75L4.2-19.75Q3.2-19.7 2.27-19.55 1.35-19.4 0.45-19.2L0.45-19.2 0.35-19.55Q1.35-20.75 2.45-21.6 3.55-22.45 4.75-23L4.75-23Q5.4-26.3 5.85-28.73 6.3-31.15 6.3-31.6L6.3-31.6Q6.3-32.45 7.63-33 8.95-33.55 10.6-33.55L10.6-33.55Q12.05-33.55 13.33-33 14.6-32.45 15.05-31.15L15.05-31.15Q14.75-30.85 14.2-28.93 13.65-27 13.05-24.25L13.05-24.25Q14-24.2 15-24.15 16-24.1 17.05-24L17.05-24Q17.15-23.7 17.2-23.35 17.25-23 17.25-22.6L17.25-22.6Q17.25-21.85 17.03-20.98 16.8-20.1 16.5-19.4L16.5-19.4Q15.3-19.5 14.25-19.63 13.2-19.75 12.2-19.8L12.2-19.8Q11.8-17.65 11.48-15.5 11.15-13.35 10.98-11.6 10.8-9.85 10.8-8.85L10.8-8.85Q10.8-6.75 11.58-6.05 12.35-5.35 13.45-5.35L13.45-5.35Q14.45-5.35 15.25-5.75 16.05-6.15 16.4-6.7L16.4-6.7 16.9-6.55Q16.6-4.5 15.3-2.98 14-1.45 12.2-0.63 10.4 0.2 8.6 0.2ZM29.9 0.35L29.9 0.35Q26.25 0.35 23.85-1.13 21.45-2.6 20.25-5.03 19.05-7.45 19.05-10.25L19.05-10.25Q19.05-12.9 20.07-15.58 21.1-18.25 23.07-20.45 25.05-22.65 27.87-24 30.7-25.35 34.25-25.35L34.25-25.35Q38.65-25.35 40.67-23.38 42.7-21.4 42.7-18.6L42.7-18.6Q42.7-16.2 41.42-14.18 40.15-12.15 38.05-10.93 35.95-9.7 33.45-9.7L33.45-9.7Q32.15-9.7 30.8-10.1 29.45-10.5 28.15-11.35L28.15-11.35Q28.4-8.25 29.95-6.85 31.5-5.45 33.65-5.45L33.65-5.45Q35.15-5.45 36.65-6.03 38.15-6.6 39.42-7.53 40.7-8.45 41.4-9.5L41.4-9.5 41.75-9.25Q41.75-6.65 40.67-4.83 39.6-3 37.85-1.85 36.1-0.7 34.02-0.18 31.95 0.35 29.9 0.35ZM31.05-13.15L31.05-13.15Q32.65-13.15 33.65-14.08 34.65-15 35.15-16.25 35.65-17.5 35.65-18.45L35.65-18.45Q35.65-19.6 35-20.38 34.35-21.15 33.2-21.15L33.2-21.15Q32.3-21.15 31.22-20.5 30.15-19.85 29.3-18.28 28.45-16.7 28.2-13.9L28.2-13.9Q29.8-13.15 31.05-13.15ZM63.4 0.25L63.4 0.25Q61.65 0.25 60.35-0.9 59.05-2.05 59.05-4.65L59.05-4.65Q59.05-4.9 59.05-5.15 59.05-5.4 59.1-5.65L59.1-5.65Q57.6-2.65 55.72-1.23 53.85 0.2 51.95 0.2L51.95 0.2Q50.2 0.2 48.65-1.03 47.1-2.25 46.15-4.65 45.2-7.05 45.2-10.45L45.2-10.45Q45.2-13.95 46.17-16.7 47.15-19.45 48.75-21.35 50.35-23.25 52.25-24.23 54.15-25.2 55.95-25.2L55.95-25.2Q57.95-25.2 59.55-23.98 61.15-22.75 61.75-20.1L61.75-20.1Q61.9-20.95 61.97-21.65 62.05-22.35 62.05-22.6L62.05-22.6Q62.1-23.95 63.42-24.6 64.75-25.25 66.35-25.25L66.35-25.25Q67.75-25.25 69-24.7 70.25-24.15 70.7-22.85L70.7-22.85 70.8-22.55Q70.2-21.2 69.6-19.3 69-17.4 68.5-15.33 68-13.25 67.7-11.28 67.4-9.3 67.4-7.8L67.4-7.8Q67.4-6.15 67.75-5.53 68.1-4.9 68.6-4.9L68.6-4.9Q69.45-4.9 70.15-6.1L70.15-6.1 70.55-5.9Q70.55-4.2 69.45-2.8 68.35-1.4 66.7-0.58 65.05 0.25 63.4 0.25ZM55.25-6.1L55.25-6.1Q56.55-6.1 58.12-8.43 59.7-10.75 60.85-15.1L60.85-15.1Q60.95-15.55 61.05-15.98 61.15-16.4 61.2-16.8L61.2-16.8Q60.4-18.65 59.52-19.43 58.65-20.2 57.8-20.2L57.8-20.2Q56.55-20.2 55.47-18.88 54.4-17.55 53.72-15.55 53.05-13.55 53.05-11.55L53.05-11.55Q53.05-8.8 53.67-7.45 54.3-6.1 55.25-6.1ZM83.04 0.35L83.04 0.35Q79.74 0.35 77.47-1.15 75.19-2.65 74.04-5.08 72.89-7.5 72.89-10.3L72.89-10.3Q72.89-12.95 73.92-15.6 74.94-18.25 76.94-20.48 78.94-22.7 81.82-24.03 84.69-25.35 88.44-25.35L88.44-25.35Q92.14-25.35 93.94-23.88 95.74-22.4 95.74-20.65L95.74-20.65Q95.74-18.8 93.89-17.25 92.04-15.7 88.49-15.7L88.49-15.7Q88.69-16.45 88.82-17.23 88.94-18 88.94-18.7L88.94-18.7Q88.94-19.75 88.49-20.48 88.04-21.2 86.89-21.2L86.89-21.2Q85.84-21.2 84.67-20.25 83.49-19.3 82.67-17.45 81.84-15.6 81.84-12.9L81.84-12.9Q81.84-10.25 82.72-8.6 83.59-6.95 84.99-6.23 86.39-5.5 87.94-5.5L87.94-5.5Q89.99-5.5 91.89-6.58 93.79-7.65 94.64-9.55L94.64-9.55 95.14-9.35Q95.14-6.75 93.97-4.93 92.79-3.1 90.94-1.93 89.09-0.75 86.99-0.2 84.89 0.35 83.04 0.35ZM102.84 0.2L102.84 0.2Q100.69 0.2 99.39-1.25 98.09-2.7 98.09-5.2L98.09-5.2Q98.09-6.55 98.44-8.72 98.79-10.9 99.32-13.53 99.84-16.15 100.34-18.88 100.84-21.6 101.19-24.15 101.54-26.7 101.54-28.65L101.54-28.65Q101.54-31.1 100.89-32.2L100.89-32.2 100.89-32.5Q101.99-33.75 103.29-34.35 104.59-34.95 105.84-34.95L105.84-34.95Q107.74-34.95 109.09-33.6 110.44-32.25 110.44-29.55L110.44-29.55Q110.44-28.1 110.04-26 109.64-23.9 109.09-21.6 108.54-19.3 107.99-17.3L107.99-17.3Q108.94-19.15 110.52-20.98 112.09-22.8 114.12-24 116.14-25.2 118.34-25.2L118.34-25.2Q120.84-25.2 121.72-23.65 122.59-22.1 122.59-19.8L122.59-19.8Q122.59-17.7 122.14-15.33 121.69-12.95 121.24-10.78 120.79-8.6 120.79-7.15L120.79-7.15Q120.79-5.05 122.04-5.05L122.04-5.05Q122.59-5.05 123.02-5.38 123.44-5.7 123.64-6.1L123.64-6.1 123.99-5.85Q123.99-3.9 123.04-2.55 122.09-1.2 120.62-0.5 119.14 0.2 117.59 0.2L117.59 0.2Q115.54 0.2 113.89-1.18 112.24-2.55 112.24-5.65L112.24-5.65Q112.24-7.4 112.72-9.45 113.19-11.5 113.64-13.43 114.09-15.35 114.09-16.65L114.09-16.65Q114.09-18.35 112.89-18.35L112.89-18.35Q111.79-18.35 110.49-17.25 109.19-16.15 108.22-14.5 107.24-12.85 106.94-11.25L106.94-11.25Q106.84-10.85 106.84-10.3L106.84-10.3Q106.84-9.05 107.22-7.9 107.59-6.75 107.59-5.2L107.59-5.2Q107.59-2.9 106.39-1.35 105.19 0.2 102.84 0.2ZM164.54 0L164.54 0Q162.94 0 161.46-0.9 159.99-1.8 159.09-3.75 158.19-5.7 158.19-8.75L158.19-8.75Q158.19-11.25 158.79-14.38 159.39-17.5 160.36-20.65 161.34-23.8 162.49-26.35L162.49-26.35Q159.04-24.05 156.44-20 153.84-15.95 151.94-10.6L151.94-10.6Q152.34-9 152.59-7.6 152.84-6.2 152.84-5.05L152.84-5.05Q152.84-2.85 151.79-1.6 150.74-0.35 148.14-0.35L148.14-0.35Q145.84-0.35 144.76-1.38 143.69-2.4 143.69-4.25L143.69-4.25Q143.69-5.45 144.11-7 144.54-8.55 145.34-10.35L145.34-10.35Q144.44-13 143.14-16.32 141.84-19.65 139.49-23.6L139.49-23.6Q138.79-20.65 138.06-17.73 137.34-14.8 136.86-12.33 136.39-9.85 136.39-8.15L136.39-8.15Q136.39-5.4 137.89-5.4L137.89-5.4 137.99-5.3Q137.99-3.65 137.16-2.48 136.34-1.3 135.06-0.68 133.79-0.05 132.39-0.05L132.39-0.05Q131.04-0.05 129.76-0.7 128.49-1.35 127.69-2.73 126.89-4.1 126.89-6.25L126.89-6.25Q126.89-8.3 127.61-10.73 128.34-13.15 129.44-15.68 130.54-18.2 131.69-20.63 132.84-23.05 133.76-25.18 134.69-27.3 134.99-28.9L134.99-28.9Q133.99-29.6 132.84-29.6L132.84-29.6Q131.89-29.6 130.91-28.98 129.94-28.35 129.09-26.9L129.09-26.9 128.74-27.05Q128.79-29.6 129.84-31.73 130.89-33.85 132.61-35.13 134.34-36.4 136.39-36.4L136.39-36.4Q138.74-36.4 141.24-34.35 143.74-32.3 145.86-27.6 147.99-22.9 149.29-14.9L149.29-14.9Q151.19-21.05 153.39-25.2 155.59-29.35 157.91-31.8 160.24-34.25 162.51-35.33 164.79-36.4 166.84-36.4L166.84-36.4Q169.39-36.4 171.41-35.15 173.44-33.9 174.61-32 175.79-30.1 175.79-28.2L175.79-28.2Q174.54-28.55 173.31-28.7 172.09-28.85 170.94-28.85L170.94-28.85Q169.79-28.85 168.74-28.7L168.74-28.7Q168.29-26.4 167.79-23.58 167.29-20.75 166.91-17.9 166.54-15.05 166.54-12.65L166.54-12.65Q166.54-10.2 167.04-8.65 167.54-7.1 168.79-7.1L168.79-7.1Q169.59-7.1 170.41-7.8 171.24-8.5 171.64-9.95L171.64-9.95 171.99-9.8Q171.99-6.5 170.89-4.33 169.79-2.15 168.06-1.07 166.34 0 164.54 0ZM187.19 0.35L187.19 0.35Q183.54 0.35 181.14-1.13 178.74-2.6 177.54-5.03 176.34-7.45 176.34-10.25L176.34-10.25Q176.34-12.9 177.36-15.58 178.39-18.25 180.36-20.45 182.34-22.65 185.16-24 187.99-25.35 191.54-25.35L191.54-25.35Q195.94-25.35 197.96-23.38 199.99-21.4 199.99-18.6L199.99-18.6Q199.99-16.2 198.71-14.18 197.44-12.15 195.34-10.93 193.24-9.7 190.74-9.7L190.74-9.7Q189.44-9.7 188.09-10.1 186.74-10.5 185.44-11.35L185.44-11.35Q185.69-8.25 187.24-6.85 188.79-5.45 190.94-5.45L190.94-5.45Q192.44-5.45 193.94-6.03 195.44-6.6 196.71-7.53 197.99-8.45 198.69-9.5L198.69-9.5 199.04-9.25Q199.04-6.65 197.96-4.83 196.89-3 195.14-1.85 193.39-0.7 191.31-0.18 189.24 0.35 187.19 0.35ZM188.34-13.15L188.34-13.15Q189.94-13.15 190.94-14.08 191.94-15 192.44-16.25 192.94-17.5 192.94-18.45L192.94-18.45Q192.94-19.6 192.29-20.38 191.64-21.15 190.49-21.15L190.49-21.15Q189.59-21.15 188.51-20.5 187.44-19.85 186.59-18.28 185.74-16.7 185.49-13.9L185.49-13.9Q187.09-13.15 188.34-13.15Z" opacity="1" transform="matrix(1,0,0,1,0,0)" fill="#ffffff" class="wordmark-text-0" data-fill-palette-color="primary" id="text-0"></path></svg></g></svg></g></svg></g></svg></g><g transform="matrix(1,0,0,1,412.70732605740045,0)"><svg viewBox="0 0 95.8566414370263 100.61541457550715" height="100.61541457550715" width="95.8566414370263"><g><svg xmlns="http://www.w3.org/2000/svg" viewBox="9.999999978955946 8.12 80.17000002520182 84.15001473166923" x="0" y="0" height="100.61541457550715" width="95.8566414370263" class="icon-icon-0" data-fill-palette-color="accent" id="icon-0"><path d="M88.49 8.12H11.67A1.7 1.7 0 0 0 10 9.82V60.88A1.7 1.7 0 0 0 11.7 62.58H16.5V66.35L21 90.87A1.7 1.7 0 0 0 22.67 92.27H31.6A1.7 1.7 0 0 0 33.29 90.81L36.87 66.06A2 2 0 0 0 36.87 65.82V62.58H58.07V65.07A1.5 1.5 0 0 0 58.07 65.37L62.54 90.83A1.7 1.7 0 0 0 64.22 92.24H74.9A1.69 1.69 0 0 0 76.57 90.83L81.05 65.37V62.58H88.47A1.7 1.7 0 0 0 90.17 60.88V9.82A1.7 1.7 0 0 0 88.49 8.12M21.54 30.5A5.72 5.72 0 1 1 27.26 36.22 5.73 5.73 0 0 1 21.54 30.5M33.45 63.56H28.13V46.65A1.7 1.7 0 0 0 24.73 46.65V65A0.56 0.56 0 0 1 24.18 65.56H19.87V41.57H33.45ZM30.1 88.87H24.1L20.46 68.87H24.22A3.94 3.94 0 0 0 27.6 66.87H33.31ZM77.67 64.87L77.47 66.02H74.9C74.45 66.02 74.15 65.7 74.13 65.16L73.26 48.59A1.7 1.7 0 1 0 69.87 48.77L70.64 63.51H61.45V50.26A1.73 1.73 0 0 0 60.71 48.85L46 38.81A2.88 2.88 0 0 1 44.75 36.45V35.45L55 40.05A23.65 23.65 0 0 0 64.67 42.1H73.08A2.92 2.92 0 0 1 75.88 44.22L77.67 50.5ZM73.47 88.79H65.65L61.81 67H71.09A4.14 4.14 0 0 0 74.9 69.51H76.9ZM86.79 59.18H81.07V50.26A1.8 1.8 0 0 0 81.01 49.79L79.15 43.29A6.35 6.35 0 0 0 73.08 38.7H73A9.12 9.12 0 1 0 65.07 38.7H64.67A20.2 20.2 0 0 1 56.38 36.94L43.73 31.32A1.73 1.73 0 0 0 42.11 31.45 1.7 1.7 0 0 0 41.34 32.88V36.45A6.26 6.26 0 0 0 44.07 41.62L58.07 51.16V59.16H36.85V39.87A1.7 1.7 0 0 0 35.15 38.17H32.15A9.12 9.12 0 1 0 22.32 38.17H18.17A1.7 1.7 0 0 0 16.47 39.87V59.18H13.37V11.52H86.79ZM69 36.22A5.72 5.72 0 1 1 74.72 30.5 5.72 5.72 0 0 1 69 36.22" fill="#ffffff" data-fill-palette-color="accent"></path></svg></g></svg></g></svg></g><defs></defs></svg><rect width="395.52" height="78.25054725950615" fill="none" stroke="none" visibility="hidden"></rect></g></svg></g></svg>